<svg width="92" height="111" viewBox="0 0 92 111" fill="none" xmlns="http://www.w3.org/2000/svg">
<g filter="url(#filter0_dddi_233_6421)">
<rect x="6" y="2" width="80" height="80" rx="40" fill="#1671D9"/>
<path d="M62.6163 52.5502C62.6163 53.1502 62.483 53.7668 62.1997 54.3668C61.9163 54.9668 61.5497 55.5335 61.0663 56.0668C60.2497 56.9668 59.3497 57.6168 58.333 58.0335C57.333 58.4502 56.2497 58.6668 55.083 58.6668C53.383 58.6668 51.5663 58.2668 49.6497 57.4502C47.733 56.6335 45.8163 55.5335 43.9163 54.1502C41.9997 52.7502 40.183 51.2002 38.4497 49.4835C36.733 47.7502 35.183 45.9335 33.7997 44.0335C32.433 42.1335 31.333 40.2335 30.533 38.3502C29.733 36.4502 29.333 34.6335 29.333 32.9002C29.333 31.7668 29.533 30.6835 29.933 29.6835C30.333 28.6668 30.9663 27.7335 31.8497 26.9002C32.9163 25.8502 34.083 25.3335 35.3163 25.3335C35.783 25.3335 36.2497 25.4335 36.6663 25.6335C37.0997 25.8335 37.483 26.1335 37.783 26.5668L41.6497 32.0168C41.9497 32.4335 42.1663 32.8168 42.3163 33.1835C42.4663 33.5335 42.5497 33.8835 42.5497 34.2002C42.5497 34.6002 42.433 35.0002 42.1997 35.3835C41.983 35.7668 41.6663 36.1668 41.2663 36.5668L39.9997 37.8835C39.8163 38.0668 39.733 38.2835 39.733 38.5502C39.733 38.6835 39.7497 38.8002 39.783 38.9335C39.833 39.0668 39.883 39.1668 39.9163 39.2668C40.2163 39.8168 40.733 40.5335 41.4663 41.4002C42.2163 42.2668 43.0163 43.1502 43.883 44.0335C44.783 44.9168 45.6497 45.7335 46.533 46.4835C47.3997 47.2168 48.1163 47.7168 48.683 48.0168C48.7663 48.0502 48.8663 48.1002 48.983 48.1502C49.1163 48.2002 49.2497 48.2168 49.3997 48.2168C49.683 48.2168 49.8997 48.1168 50.083 47.9335L51.3497 46.6835C51.7663 46.2668 52.1663 45.9502 52.5497 45.7502C52.933 45.5168 53.3163 45.4002 53.733 45.4002C54.0497 45.4002 54.383 45.4668 54.7497 45.6168C55.1163 45.7668 55.4997 45.9835 55.9163 46.2668L61.433 50.1835C61.8663 50.4835 62.1663 50.8335 62.3497 51.2502C62.5163 51.6668 62.6163 52.0835 62.6163 52.5502Z" fill="white"/>
</g>
<defs>
<filter id="filter0_dddi_233_6421" x="0.666666" y="-1.33333" width="90.6667" height="112" filterUnits="userSpaceOnUse" color-interpolation-filters="sRGB">
<feFlood flood-opacity="0" result="BackgroundImageFix"/>
<feColorMatrix in="SourceAlpha" type="matrix" values="0 0 0 0 0 0 0 0 0 0 0 0 0 0 0 0 0 0 127 0" result="hardAlpha"/>
<feMorphology radius="1.66667" operator="dilate" in="SourceAlpha" result="effect1_dropShadow_233_6421"/>
<feOffset/>
<feColorMatrix type="matrix" values="0 0 0 0 0.0862745 0 0 0 0 0.443137 0 0 0 0 0.85098 0 0 0 1 0"/>
<feBlend mode="normal" in2="BackgroundImageFix" result="effect1_dropShadow_233_6421"/>
<feColorMatrix in="SourceAlpha" type="matrix" values="0 0 0 0 0 0 0 0 0 0 0 0 0 0 0 0 0 0 127 0" result="hardAlpha"/>
<feOffset dy="1.66667"/>
<feGaussianBlur stdDeviation="0.833333"/>
<feColorMatrix type="matrix" values="0 0 0 0 0 0 0 0 0 0 0 0 0 0 0 0 0 0 0.1 0"/>
<feBlend mode="normal" in2="effect1_dropShadow_233_6421" result="effect2_dropShadow_233_6421"/>
<feColorMatrix in="SourceAlpha" type="matrix" values="0 0 0 0 0 0 0 0 0 0 0 0 0 0 0 0 0 0 127 0" result="hardAlpha"/>
<feMorphology radius="28.3333" operator="erode" in="SourceAlpha" result="effect3_dropShadow_233_6421"/>
<feOffset dy="23.3333"/>
<feGaussianBlur stdDeviation="16.8333"/>
<feComposite in2="hardAlpha" operator="out"/>
<feColorMatrix type="matrix" values="0 0 0 0 0.0862745 0 0 0 0 0.443137 0 0 0 0 0.85098 0 0 0 0.53 0"/>
<feBlend mode="normal" in2="effect2_dropShadow_233_6421" result="effect3_dropShadow_233_6421"/>
<feBlend mode="normal" in="SourceGraphic" in2="effect3_dropShadow_233_6421" result="shape"/>
<feColorMatrix in="SourceAlpha" type="matrix" values="0 0 0 0 0 0 0 0 0 0 0 0 0 0 0 0 0 0 127 0" result="hardAlpha"/>
<feOffset dx="3.33333" dy="-3.33333"/>
<feGaussianBlur stdDeviation="10"/>
<feComposite in2="hardAlpha" operator="arithmetic" k2="-1" k3="1"/>
<feColorMatrix type="matrix" values="0 0 0 0 1 0 0 0 0 1 0 0 0 0 1 0 0 0 0.3 0"/>
<feBlend mode="normal" in2="shape" result="effect4_innerShadow_233_6421"/>
</filter>
</defs>
</svg>
