<svg width="390" height="37" viewBox="0 0 390 37" fill="none" xmlns="http://www.w3.org/2000/svg">
<rect width="390" height="37" fill="white"/>
<path d="M130.04 23V14.2727H132.989C133.674 14.2727 134.234 14.3963 134.668 14.6435C135.106 14.8878 135.43 15.2188 135.64 15.6364C135.85 16.054 135.955 16.5199 135.955 17.0341C135.955 17.5483 135.85 18.0156 135.64 18.4361C135.432 18.8565 135.111 19.1918 134.677 19.4418C134.242 19.6889 133.685 19.8125 133.006 19.8125H130.893V18.875H132.972C133.441 18.875 133.817 18.794 134.101 18.6321C134.386 18.4702 134.591 18.2514 134.719 17.9759C134.85 17.6974 134.915 17.3835 134.915 17.0341C134.915 16.6847 134.85 16.3722 134.719 16.0966C134.591 15.821 134.384 15.6051 134.097 15.4489C133.81 15.2898 133.43 15.2102 132.955 15.2102H131.097V23H130.04ZM140.11 23.1364C139.519 23.1364 139.001 22.9957 138.555 22.7145C138.111 22.4332 137.765 22.0398 137.515 21.5341C137.268 21.0284 137.144 20.4375 137.144 19.7614C137.144 19.0795 137.268 18.4844 137.515 17.9759C137.765 17.4673 138.111 17.0724 138.555 16.7912C139.001 16.5099 139.519 16.3693 140.11 16.3693C140.701 16.3693 141.218 16.5099 141.661 16.7912C142.107 17.0724 142.454 17.4673 142.701 17.9759C142.951 18.4844 143.076 19.0795 143.076 19.7614C143.076 20.4375 142.951 21.0284 142.701 21.5341C142.454 22.0398 142.107 22.4332 141.661 22.7145C141.218 22.9957 140.701 23.1364 140.11 23.1364ZM140.11 22.233C140.559 22.233 140.928 22.1179 141.218 21.8878C141.508 21.6577 141.722 21.3551 141.861 20.9801C142.001 20.6051 142.07 20.1989 142.07 19.7614C142.07 19.3239 142.001 18.9162 141.861 18.5384C141.722 18.1605 141.508 17.8551 141.218 17.6222C140.928 17.3892 140.559 17.2727 140.11 17.2727C139.661 17.2727 139.292 17.3892 139.002 17.6222C138.712 17.8551 138.498 18.1605 138.359 18.5384C138.219 18.9162 138.15 19.3239 138.15 19.7614C138.15 20.1989 138.219 20.6051 138.359 20.9801C138.498 21.3551 138.712 21.6577 139.002 21.8878C139.292 22.1179 139.661 22.233 140.11 22.233ZM145.871 23L143.877 16.4545H144.934L146.349 21.4659H146.417L147.814 16.4545H148.888L150.269 21.4489H150.337L151.752 16.4545H152.809L150.814 23H149.826L148.394 17.9716H148.292L146.86 23H145.871ZM156.66 23.1364C156.029 23.1364 155.485 22.9972 155.028 22.7188C154.573 22.4375 154.223 22.0455 153.975 21.5426C153.731 21.0369 153.609 20.4489 153.609 19.7784C153.609 19.108 153.731 18.517 153.975 18.0057C154.223 17.4915 154.566 17.0909 155.007 16.804C155.45 16.5142 155.967 16.3693 156.558 16.3693C156.899 16.3693 157.235 16.4261 157.568 16.5398C157.9 16.6534 158.203 16.8381 158.475 17.0938C158.748 17.3466 158.965 17.6818 159.127 18.0994C159.289 18.517 159.37 19.0312 159.37 19.642V20.0682H154.325V19.1989H158.348C158.348 18.8295 158.274 18.5 158.126 18.2102C157.981 17.9205 157.774 17.6918 157.504 17.5241C157.237 17.3565 156.921 17.2727 156.558 17.2727C156.157 17.2727 155.811 17.3722 155.518 17.571C155.228 17.767 155.005 18.0227 154.849 18.3381C154.693 18.6534 154.615 18.9915 154.615 19.3523V19.9318C154.615 20.4261 154.7 20.8452 154.87 21.1889C155.044 21.5298 155.284 21.7898 155.59 21.9688C155.897 22.1449 156.254 22.233 156.66 22.233C156.924 22.233 157.163 22.196 157.376 22.1222C157.592 22.0455 157.778 21.9318 157.934 21.7812C158.09 21.6278 158.211 21.4375 158.296 21.2102L159.268 21.483C159.166 21.8125 158.994 22.1023 158.752 22.3523C158.511 22.5994 158.213 22.7926 157.857 22.9318C157.502 23.0682 157.103 23.1364 156.66 23.1364ZM160.9 23V16.4545H161.872V17.4432H161.94C162.059 17.1193 162.275 16.8565 162.588 16.6548C162.9 16.4531 163.252 16.3523 163.644 16.3523C163.718 16.3523 163.811 16.3537 163.921 16.3565C164.032 16.3594 164.116 16.3636 164.173 16.3693V17.392C164.139 17.3835 164.061 17.3707 163.938 17.3537C163.819 17.3338 163.693 17.3239 163.559 17.3239C163.241 17.3239 162.957 17.3906 162.707 17.5241C162.46 17.6548 162.264 17.8366 162.119 18.0696C161.977 18.2997 161.906 18.5625 161.906 18.858V23H160.9ZM167.91 23.1364C167.279 23.1364 166.735 22.9972 166.278 22.7188C165.823 22.4375 165.473 22.0455 165.225 21.5426C164.981 21.0369 164.859 20.4489 164.859 19.7784C164.859 19.108 164.981 18.517 165.225 18.0057C165.473 17.4915 165.816 17.0909 166.257 16.804C166.7 16.5142 167.217 16.3693 167.808 16.3693C168.149 16.3693 168.485 16.4261 168.818 16.5398C169.15 16.6534 169.453 16.8381 169.725 17.0938C169.998 17.3466 170.215 17.6818 170.377 18.0994C170.539 18.517 170.62 19.0312 170.62 19.642V20.0682H165.575V19.1989H169.598C169.598 18.8295 169.524 18.5 169.376 18.2102C169.231 17.9205 169.024 17.6918 168.754 17.5241C168.487 17.3565 168.171 17.2727 167.808 17.2727C167.407 17.2727 167.061 17.3722 166.768 17.571C166.478 17.767 166.255 18.0227 166.099 18.3381C165.943 18.6534 165.865 18.9915 165.865 19.3523V19.9318C165.865 20.4261 165.95 20.8452 166.12 21.1889C166.294 21.5298 166.534 21.7898 166.84 21.9688C167.147 22.1449 167.504 22.233 167.91 22.233C168.174 22.233 168.413 22.196 168.626 22.1222C168.842 22.0455 169.028 21.9318 169.184 21.7812C169.34 21.6278 169.461 21.4375 169.546 21.2102L170.518 21.483C170.416 21.8125 170.244 22.1023 170.002 22.3523C169.761 22.5994 169.463 22.7926 169.107 22.9318C168.752 23.0682 168.353 23.1364 167.91 23.1364ZM174.622 23.1364C174.076 23.1364 173.595 22.9986 173.177 22.723C172.759 22.4446 172.433 22.0526 172.197 21.5469C171.961 21.0384 171.843 20.4375 171.843 19.7443C171.843 19.0568 171.961 18.4602 172.197 17.9545C172.433 17.4489 172.761 17.0582 173.181 16.7827C173.602 16.5071 174.088 16.3693 174.639 16.3693C175.065 16.3693 175.401 16.4403 175.649 16.5824C175.899 16.7216 176.089 16.8807 176.22 17.0597C176.353 17.2358 176.457 17.3807 176.531 17.4943H176.616V14.2727H177.622V23H176.65V21.9943H176.531C176.457 22.1136 176.352 22.2642 176.215 22.446C176.079 22.625 175.884 22.7855 175.632 22.9276C175.379 23.0668 175.042 23.1364 174.622 23.1364ZM174.758 22.233C175.161 22.233 175.502 22.1278 175.781 21.9176C176.059 21.7045 176.271 21.4105 176.416 21.0355C176.561 20.6577 176.633 20.2216 176.633 19.7273C176.633 19.2386 176.562 18.8111 176.42 18.4446C176.278 18.0753 176.068 17.7884 175.789 17.5838C175.511 17.3764 175.167 17.2727 174.758 17.2727C174.332 17.2727 173.977 17.3821 173.693 17.6009C173.411 17.8168 173.2 18.1108 173.058 18.483C172.919 18.8523 172.849 19.267 172.849 19.7273C172.849 20.1932 172.92 20.6165 173.062 20.9972C173.207 21.375 173.42 21.6761 173.701 21.9006C173.985 22.1222 174.338 22.233 174.758 22.233ZM183.115 23V14.2727H184.12V17.4943H184.205C184.279 17.3807 184.382 17.2358 184.512 17.0597C184.646 16.8807 184.836 16.7216 185.083 16.5824C185.333 16.4403 185.671 16.3693 186.098 16.3693C186.649 16.3693 187.134 16.5071 187.555 16.7827C187.975 17.0582 188.303 17.4489 188.539 17.9545C188.775 18.4602 188.893 19.0568 188.893 19.7443C188.893 20.4375 188.775 21.0384 188.539 21.5469C188.303 22.0526 187.977 22.4446 187.559 22.723C187.142 22.9986 186.66 23.1364 186.115 23.1364C185.694 23.1364 185.357 23.0668 185.105 22.9276C184.852 22.7855 184.657 22.625 184.521 22.446C184.384 22.2642 184.279 22.1136 184.205 21.9943H184.086V23H183.115ZM184.103 19.7273C184.103 20.2216 184.176 20.6577 184.321 21.0355C184.465 21.4105 184.677 21.7045 184.955 21.9176C185.234 22.1278 185.575 22.233 185.978 22.233C186.399 22.233 186.75 22.1222 187.031 21.9006C187.315 21.6761 187.528 21.375 187.67 20.9972C187.815 20.6165 187.887 20.1932 187.887 19.7273C187.887 19.267 187.816 18.8523 187.674 18.483C187.535 18.1108 187.323 17.8168 187.039 17.6009C186.758 17.3821 186.404 17.2727 185.978 17.2727C185.569 17.2727 185.225 17.3764 184.947 17.5838C184.669 17.7884 184.458 18.0753 184.316 18.4446C184.174 18.8111 184.103 19.2386 184.103 19.7273ZM190.845 25.4545C190.674 25.4545 190.522 25.4403 190.389 25.4119C190.255 25.3864 190.163 25.3608 190.112 25.3352L190.367 24.4489C190.612 24.5114 190.828 24.5341 191.015 24.517C191.203 24.5 191.369 24.4162 191.514 24.2656C191.661 24.1179 191.796 23.8778 191.919 23.5455L192.106 23.0341L189.686 16.4545H190.776L192.583 21.6705H192.651L194.458 16.4545H195.549L192.771 23.9545C192.646 24.2926 192.491 24.5724 192.306 24.794C192.122 25.0185 191.907 25.1847 191.663 25.2926C191.421 25.4006 191.149 25.4545 190.845 25.4545Z" fill="#7F90A4"/>
<g clip-path="url(#clip0_662_308)">
<path d="M210.107 16.9212C209.34 17.1262 208.407 17.5326 207.604 18.0111C207.116 18.3018 206.06 19.0137 205.785 19.2379C205.415 19.5394 205.256 19.7977 205.284 20.0511C205.303 20.2139 205.389 20.3175 205.583 20.4082C205.782 20.5016 206.033 20.5284 206.242 20.4788C206.512 20.4148 207.674 19.8665 208.276 19.519C208.638 19.3102 209.124 18.9909 209.517 18.7034C209.686 18.5803 209.969 18.3788 210.146 18.2555C210.552 17.9733 210.633 17.8937 210.706 17.7071C210.787 17.4975 210.792 17.1636 210.715 17.0605C210.578 16.8768 210.413 16.839 210.107 16.921V16.9212Z" fill="#4E6785"/>
<path d="M212.326 15.96C212.284 15.9708 212.181 15.9809 212.098 15.9826C212.016 15.9844 211.905 16.0037 211.852 16.0259C211.627 16.1198 211.423 16.4141 211.42 16.6505C211.416 16.9053 211.521 16.9956 211.847 17.018C212.025 17.0303 212.073 17.0226 212.29 16.9479C212.424 16.9017 212.559 16.8409 212.59 16.8125C212.654 16.7538 212.729 16.4855 212.729 16.3182C212.729 16.0835 212.532 15.9088 212.327 15.9602L212.326 15.96Z" fill="#4E6785"/>
<path fill-rule="evenodd" clip-rule="evenodd" d="M202.694 13.9481C203.629 12.1182 205.368 10.8591 207.394 10.5463C207.738 10.4932 208.94 10.4929 209.298 10.5461C211.962 10.9404 214.095 12.9978 214.602 15.6611C214.671 16.0222 214.7 17.2009 214.651 17.6268C214.436 19.4813 213.336 21.1956 211.699 22.225C210.992 22.6696 210.121 22.9809 209.159 23.1327C209.035 23.1523 207.859 23.1648 205.491 23.1721L202.005 23.1828L202.014 19.6428L202.023 16.1028L202.092 15.7391C202.216 15.0743 202.405 14.5134 202.694 13.9481ZM209.419 11.0241C209.319 11.0083 209.174 10.9844 209.096 10.971C208.921 10.9406 207.777 10.9446 207.601 10.976C207.53 10.9888 207.396 11.0112 207.303 11.0259C207.082 11.0609 206.601 11.1758 206.544 11.2074C206.519 11.2211 206.482 11.2323 206.46 11.2323C206.439 11.2323 206.38 11.2556 206.329 11.2841C206.279 11.3127 206.222 11.336 206.204 11.336C206.165 11.336 205.398 11.7193 205.288 11.7936C205.247 11.8215 205.184 11.8591 205.148 11.8769C205.082 11.9101 204.81 12.1072 204.604 12.271C204.415 12.4215 203.956 12.8718 203.841 13.0198C203.782 13.096 203.695 13.207 203.648 13.2666C203.443 13.5268 203.279 13.7945 203.066 14.2178C202.94 14.467 202.838 14.6859 202.838 14.7039C202.838 14.722 202.814 14.7784 202.786 14.8294C202.757 14.8802 202.734 14.9393 202.734 14.9604C202.734 14.9815 202.723 15.0193 202.709 15.0441C202.675 15.1066 202.562 15.5842 202.512 15.8815C202.489 16.0173 202.46 16.1393 202.447 16.1529C202.417 16.1835 202.417 22.4382 202.447 22.618C202.458 22.6872 202.484 22.7545 202.504 22.7672C202.554 22.7998 208.677 22.778 208.991 22.7442C209.127 22.7294 209.384 22.6859 209.562 22.6472C209.741 22.6085 209.919 22.571 209.958 22.5639C209.998 22.5569 210.036 22.5406 210.044 22.5281C210.052 22.5154 210.086 22.505 210.12 22.505C210.154 22.505 210.189 22.4934 210.198 22.4791C210.207 22.4648 210.242 22.4532 210.276 22.4532C210.31 22.4532 210.345 22.4415 210.354 22.4272C210.363 22.4129 210.391 22.4013 210.417 22.4013C210.442 22.4013 210.554 22.3545 210.665 22.2973C210.776 22.2402 210.884 22.1934 210.905 22.1934C210.925 22.1934 210.991 22.1609 211.05 22.1211C211.11 22.0813 211.194 22.0321 211.237 22.0114C211.28 21.9907 211.361 21.9442 211.418 21.9074C211.476 21.871 211.551 21.8261 211.587 21.8081C211.859 21.671 212.549 21.062 212.877 20.6696C213.083 20.4235 213.431 19.9356 213.431 19.8932C213.431 19.8839 213.455 19.8417 213.485 19.7993C213.56 19.6949 213.794 19.2321 213.794 19.1899C213.794 19.1712 213.817 19.1143 213.846 19.0633C213.874 19.0125 213.898 18.954 213.898 18.9334C213.898 18.9127 213.919 18.8576 213.944 18.8107C213.97 18.7639 214.005 18.6613 214.024 18.5826C214.042 18.5041 214.067 18.4165 214.08 18.3879C214.121 18.294 214.213 17.796 214.242 17.5048C214.276 17.171 214.281 16.5444 214.252 16.2839C214.203 15.8417 214.087 15.2613 214.026 15.1479C214.013 15.1231 214.002 15.08 214.002 15.0521C214.002 15.0241 213.99 14.994 213.976 14.9852C213.962 14.9765 213.95 14.9413 213.95 14.9072C213.95 14.8732 213.938 14.8382 213.924 14.8292C213.91 14.8204 213.898 14.7927 213.898 14.7679C213.898 14.7431 213.795 14.5187 213.67 14.2694C213.308 13.5505 213.06 13.2055 212.518 12.6683C212.187 12.3413 211.666 11.9158 211.484 11.8246C211.448 11.8066 211.385 11.7694 211.345 11.742C211.234 11.6674 210.675 11.3874 210.636 11.3874C210.618 11.3874 210.561 11.3641 210.51 11.3356C210.459 11.307 210.395 11.2837 210.368 11.2837C210.341 11.2837 210.311 11.2721 210.302 11.2578C210.294 11.2435 210.258 11.2318 210.225 11.2318C210.191 11.2318 210.156 11.2202 210.147 11.2059C210.138 11.1916 210.108 11.18 210.08 11.18C210.052 11.18 210.009 11.1688 209.984 11.1551C209.928 11.1242 209.659 11.0613 209.42 11.0235L209.419 11.0241ZM240.434 18.5672C240.964 18.2989 241.666 18.118 242.389 18.0635C242.956 18.0209 243.672 18.0677 244.226 18.1837C245.635 18.4784 246.616 19.3226 247.019 20.5861C247.402 21.7877 247.32 23.4178 246.826 24.4457C246.505 25.1151 245.904 25.7105 245.222 26.0345C244.564 26.3472 243.834 26.489 242.882 26.489C241.931 26.489 241.24 26.3538 240.571 26.0391C239.975 25.7587 239.517 25.3674 239.172 24.8433C238.72 24.1567 238.523 23.3765 238.523 22.2712C238.523 21.2991 238.656 20.6567 238.995 20.0006C239.3 19.409 239.846 18.865 240.434 18.567L240.434 18.5672ZM245.753 21.5745C245.596 20.2242 244.82 19.4158 243.505 19.2345C242.68 19.1206 241.859 19.2336 241.265 19.5428C240.355 20.0167 239.932 21.0184 239.999 22.538C240.051 23.7083 240.376 24.4198 241.076 24.8934C241.947 25.4842 243.644 25.5129 244.609 24.9536C244.852 24.8123 245.242 24.4134 245.385 24.1584C245.51 23.9373 245.645 23.5666 245.713 23.2582C245.77 23 245.795 21.9395 245.753 21.5743V21.5745ZM216.815 20.9013C217.061 20.402 217.351 20.1334 217.778 20.0088C217.984 19.9488 218.422 19.9452 218.671 20.0015L218.857 20.0435L218.85 20.6314L218.843 21.2193L218.401 21.2354C218.057 21.2479 217.923 21.2633 217.791 21.3059C217.305 21.4628 216.997 21.7934 216.85 22.3151C216.794 22.5145 216.793 22.5518 216.785 24.4336L216.776 26.3492H215.429L215.435 23.2259L215.442 20.1026L215.99 20.0956L216.538 20.0885L216.553 20.1863C216.561 20.2402 216.588 20.4683 216.613 20.6934C216.641 20.9479 216.669 21.1024 216.687 21.1024C216.703 21.1024 216.76 21.0118 216.815 20.9011L216.815 20.9013ZM219.038 23.2116C219.04 21.2844 219.811 20.2543 221.441 20.0006C221.804 19.9444 222.554 19.9492 222.912 20.0105C223.922 20.1833 224.582 20.7415 224.889 21.6828C225.015 22.0694 225.085 22.6193 225.086 23.2259V23.5442H222.75H220.413V23.6674C220.413 23.8576 220.485 24.2584 220.559 24.4769C220.731 24.9923 221.038 25.2888 221.542 25.4266C221.786 25.4932 222.354 25.5083 222.621 25.4554C223.263 25.3277 223.673 24.9202 223.732 24.3492L223.749 24.1804H225.047L225.04 24.3622C224.998 25.4584 224.21 26.2182 222.88 26.4452C222.575 26.4973 221.764 26.5037 221.465 26.4567C220.74 26.3426 220.196 26.0866 219.812 25.6795C219.284 25.12 219.036 24.3299 219.038 23.2116ZM225.92 21.409C226.078 20.6496 226.872 20.1222 228.061 19.9866C228.349 19.9536 229.129 19.9747 229.413 20.0228C230.059 20.1325 230.622 20.4156 230.907 20.7743C231.133 21.0593 231.271 21.4969 231.227 21.7903L231.21 21.9079H229.922L229.909 21.7569C229.874 21.3795 229.627 21.1398 229.136 21.0074C228.882 20.9389 228.184 20.9457 227.912 21.0195C227.644 21.0923 227.473 21.1833 227.362 21.3125C227.271 21.42 227.207 21.611 227.228 21.7151C227.233 21.7426 227.245 21.7971 227.253 21.836C227.277 21.9492 227.417 22.0863 227.609 22.1826C227.81 22.2842 228.369 22.4569 229.29 22.7026C230.286 22.9683 230.676 23.14 230.993 23.4529C231.296 23.7525 231.403 24.0422 231.4 24.5573C231.397 25.0483 231.261 25.4094 230.957 25.7325C230.473 26.2466 229.684 26.4916 228.526 26.4879C227.746 26.4855 227.234 26.385 226.736 26.1369C226.472 26.0057 226.325 25.8967 226.134 25.6929C225.856 25.3954 225.709 25.0147 225.709 24.5921V24.3754H227.026L227.04 24.5666C227.067 24.9266 227.228 25.1565 227.563 25.3132C227.803 25.4253 228.037 25.4685 228.487 25.4837C228.954 25.4995 229.277 25.4488 229.564 25.3145C229.91 25.1523 230.063 24.9314 230.039 24.6274C230.002 24.176 229.763 24.0343 228.431 23.676C227.95 23.5466 227.461 23.4105 227.344 23.3736C226.567 23.1283 226.068 22.7061 225.931 22.18C225.884 22.0013 225.879 21.6066 225.92 21.4094V21.409ZM232.254 21.409C232.412 20.6496 233.207 20.1222 234.395 19.9866C234.683 19.9536 235.463 19.9747 235.747 20.0228C236.393 20.1325 236.956 20.4156 237.241 20.7743C237.467 21.0593 237.606 21.4969 237.562 21.7903L237.544 21.9079H236.256L236.243 21.7569C236.209 21.3795 235.962 21.1398 235.471 21.0074C235.216 20.9389 234.518 20.9457 234.246 21.0195C233.978 21.0923 233.807 21.1833 233.697 21.3125C233.605 21.42 233.541 21.611 233.562 21.7151C233.565 21.7292 233.569 21.7505 233.574 21.7732C233.576 21.7833 233.578 21.7936 233.58 21.8037C233.583 21.8151 233.585 21.8261 233.587 21.8362C233.611 21.9494 233.751 22.0866 233.943 22.1828C234.144 22.2844 234.703 22.4571 235.624 22.7028C236.621 22.9685 237.01 23.1402 237.327 23.4532C237.631 23.7527 237.737 24.0424 237.734 24.5576C237.731 25.0485 237.595 25.4096 237.291 25.7327C236.807 26.2468 236.019 26.4918 234.86 26.4881C234.08 26.4857 233.568 26.3852 233.07 26.1371C232.806 26.0059 232.658 25.8969 232.468 25.6932C232.191 25.3956 232.044 25.0149 232.044 24.5923V24.3756H233.36L233.374 24.5668C233.402 24.9268 233.562 25.1567 233.897 25.3134C234.136 25.4255 234.37 25.4688 234.821 25.4839C235.288 25.4998 235.611 25.449 235.898 25.3147C236.244 25.1525 236.397 24.9316 236.373 24.6277C236.336 24.1762 236.097 24.0345 234.765 23.6762C234.284 23.5468 233.794 23.4107 233.677 23.3738C232.901 23.1285 232.402 22.7063 232.265 22.1802C232.218 22.0015 232.213 21.6068 232.254 21.4096L232.254 21.409ZM249.82 20.8055C250.139 20.4151 250.691 20.109 251.274 19.9993C251.543 19.9485 252.339 19.9628 252.575 20.0226C253.379 20.2259 253.827 20.7044 253.967 21.5101C254 21.6965 254.006 22.1094 254.006 24.0411V26.3494H252.684L252.676 24.1351L252.669 21.9209L252.609 21.7543C252.467 21.362 252.244 21.1784 251.8 21.0883C251.516 21.0307 251.079 21.0474 250.839 21.1248C250.358 21.28 249.969 21.6589 249.796 22.1417L249.735 22.3105L249.728 24.3301L249.72 26.3496H248.372L248.379 23.2263L248.385 20.1031L248.937 20.096C249.241 20.0923 249.489 20.0923 249.489 20.096C249.489 20.0998 249.512 20.2842 249.541 20.5057C249.569 20.7272 249.593 20.9228 249.593 20.9409C249.593 21.0198 249.694 20.9595 249.82 20.8061L249.82 20.8055ZM254.967 23.2116C254.969 21.2844 255.741 20.2543 257.371 20.0006C257.733 19.9444 258.484 19.9492 258.842 20.0105C259.852 20.1833 260.512 20.7415 260.819 21.6828C260.945 22.0694 261.015 22.6193 261.016 23.2259V23.5442H258.68H256.343V23.6674C256.343 23.8576 256.415 24.2584 256.488 24.4769C256.661 24.9923 256.968 25.2888 257.472 25.4266C257.716 25.4932 258.284 25.5083 258.551 25.4554C259.193 25.3277 259.602 24.9202 259.662 24.3492L259.679 24.1804H260.977L260.97 24.3622C260.928 25.4584 260.14 26.2182 258.809 26.4452C258.505 26.4973 257.694 26.5037 257.394 26.4567C256.67 26.3426 256.125 26.0866 255.742 25.6795C255.214 25.12 254.966 24.3299 254.967 23.2116ZM223.258 21.3474C223.079 21.169 222.885 21.0655 222.624 21.0103C222.408 20.9644 221.856 20.965 221.646 21.0112C221.165 21.1173 220.849 21.3499 220.65 21.7435C220.576 21.8914 220.472 22.258 220.45 22.4505L220.432 22.609H223.692L223.674 22.3947C223.634 21.9132 223.509 21.5976 223.258 21.3474ZM259.188 21.3474C259.009 21.169 258.814 21.0655 258.554 21.0103C258.338 20.9644 257.786 20.965 257.576 21.0112C257.095 21.1173 256.779 21.3499 256.58 21.7435C256.506 21.8914 256.402 22.258 256.38 22.4505L256.362 22.609H259.621L259.604 22.3947C259.564 21.9132 259.438 21.5976 259.188 21.3474ZM202.007 26.1938V23.7516L203.877 23.7582L205.746 23.7648V26.1804L203.877 26.187L202.007 26.1936V26.1938ZM205.304 25.8039V24.1936H203.879C202.603 24.1936 202.452 24.198 202.438 24.2347C202.417 24.2894 202.418 25.5299 202.439 25.6835L202.455 25.8039H205.304H205.304Z" fill="#4E6785"/>
<path d="M204.084 16.9195C203.917 16.9768 203.772 17.1219 203.725 17.2788C203.708 17.3351 203.695 17.4617 203.695 17.5599C203.696 17.781 203.756 17.9245 203.891 18.0274C203.983 18.0977 204.004 18.1021 204.225 18.1001C204.506 18.0975 204.68 18.039 204.909 17.8705C205.161 17.685 205.202 17.5298 205.069 17.263C204.978 17.0817 204.832 16.943 204.685 16.8988C204.533 16.8533 204.248 16.8632 204.084 16.9195H204.084Z" fill="#4E6785"/>
<path fill-rule="evenodd" clip-rule="evenodd" d="M208.629 14.4122C209.269 14.0401 210.101 13.6783 210.762 13.4854C211.234 13.3478 211.421 13.3706 211.55 13.5814C211.622 13.6996 211.62 13.9777 211.546 14.197C211.476 14.4056 211.402 14.4785 210.926 14.8111C210.719 14.9552 210.375 15.1988 210.161 15.3522C209.588 15.7629 209.123 16.0407 208.396 16.4065C207.235 16.9904 206.969 17.079 206.629 16.9952C206.406 16.9401 206.258 16.8577 206.184 16.7465C206.062 16.5662 206.128 16.2401 206.332 16.0069C206.563 15.7445 207.719 14.9414 208.629 14.412L208.629 14.4122Z" fill="#4E6785"/>
<path d="M210.107 16.9212C209.34 17.1262 208.407 17.5326 207.604 18.0111C207.116 18.3018 206.06 19.0137 205.785 19.2379C205.415 19.5394 205.256 19.7977 205.284 20.0511C205.303 20.2139 205.389 20.3175 205.583 20.4082C205.782 20.5016 206.033 20.5284 206.242 20.4788C206.512 20.4148 207.674 19.8665 208.276 19.519C208.638 19.3102 209.124 18.9909 209.517 18.7034C209.686 18.5803 209.969 18.3788 210.146 18.2555C210.552 17.9733 210.633 17.8937 210.706 17.7071C210.787 17.4975 210.792 17.1636 210.715 17.0605C210.578 16.8768 210.413 16.839 210.107 16.921V16.9212Z" fill="#4E6785"/>
<path d="M212.326 15.96C212.284 15.9708 212.181 15.9809 212.098 15.9826C212.016 15.9844 211.905 16.0037 211.852 16.0259C211.627 16.1198 211.423 16.4141 211.42 16.6505C211.416 16.9053 211.521 16.9956 211.847 17.018C212.025 17.0303 212.073 17.0226 212.29 16.9479C212.424 16.9017 212.559 16.8409 212.59 16.8125C212.654 16.7538 212.729 16.4855 212.729 16.3182C212.729 16.0835 212.532 15.9088 212.327 15.9602L212.326 15.96Z" fill="#4E6785"/>
<path d="M204.084 16.9195C203.917 16.9768 203.772 17.1219 203.725 17.2788C203.708 17.3351 203.695 17.4617 203.695 17.5599C203.696 17.781 203.756 17.9245 203.891 18.0274C203.983 18.0977 204.004 18.1021 204.225 18.1001C204.506 18.0975 204.68 18.039 204.909 17.8705C205.161 17.685 205.202 17.5298 205.069 17.263C204.978 17.0817 204.832 16.943 204.685 16.8988C204.533 16.8533 204.248 16.8632 204.084 16.9195H204.084Z" fill="#4E6785"/>
</g>
<defs>
<clipPath id="clip0_662_308">
<rect width="59.033" height="16" fill="white" transform="translate(201.984 10.5)"/>
</clipPath>
</defs>
</svg>
